<?xml version="1.0" standalone="no"?>
<!DOCTYPE svg PUBLIC "-//W3C//DTD SVG 20010904//EN"
 "http://www.w3.org/TR/2001/REC-SVG-20010904/DTD/svg10.dtd">
<svg version="1.0" xmlns="http://www.w3.org/2000/svg"
 width="1000.000000pt" height="1000.000000pt" viewBox="0 0 1000.000000 1000.000000"
 preserveAspectRatio="xMidYMid meet">

<g transform="translate(0.000000,1000.000000) scale(0.100000,-0.100000)"
fill="#000000" stroke="none">
<path d="M4710 8739 c-99 -40 -158 -155 -131 -256 18 -66 121 -196 282 -355
82 -81 149 -150 149 -152 0 -3 -280 -765 -622 -1693 -401 -1089 -621 -1700
-621 -1723 1 -23 74 -197 218 -518 l218 -483 -354 -954 -354 -955 -46 -15
c-54 -18 -123 -74 -145 -118 -9 -16 -43 -107 -76 -201 -55 -158 -59 -176 -55
-238 10 -146 116 -244 262 -242 79 0 131 22 184 75 43 42 52 63 117 251 68
197 73 254 31 340 -15 30 -27 60 -27 66 0 15 699 1896 708 1903 4 4 205 100
447 214 242 113 459 218 482 231 36 21 45 34 71 101 16 43 296 817 622 1721
l593 1642 108 0 c194 0 461 36 530 70 155 80 154 306 -2 384 -61 30 -99 32
-209 10 -106 -21 -450 -30 -580 -15 -422 48 -837 209 -1160 450 -104 77 -259
229 -346 337 -85 107 -129 134 -215 133 -30 0 -65 -5 -79 -10z m627 -975 c264
-156 612 -284 907 -335 67 -12 128 -24 137 -28 14 -5 -50 -188 -402 -1161
-230 -635 -419 -1159 -421 -1163 -5 -11 -68 13 -68 26 0 28 -45 98 -74 116
-18 11 -209 84 -424 161 -412 147 -451 157 -513 124 -25 -12 -37 -13 -65 -4
-19 6 -34 13 -34 15 0 5 841 2289 846 2297 8 12 8 12 111 -48z m-948 -2464
c14 -47 44 -86 82 -105 63 -33 812 -295 842 -295 18 0 53 8 79 17 42 15 51 15
77 2 l29 -14 -143 -394 -142 -393 -402 -191 c-320 -151 -405 -187 -412 -176
-4 8 -89 194 -189 415 l-180 401 95 259 c53 142 118 320 146 395 l50 137 29
-11 c20 -7 31 -21 39 -47z"/>
<path d="M1947 6519 c-21 -5 -52 -16 -70 -25 -49 -26 -1355 -1320 -1379 -1368
-29 -57 -35 -141 -13 -207 17 -50 48 -83 494 -523 1011 -999 920 -918 1036
-919 111 -1 202 58 247 161 25 55 21 158 -6 214 -16 33 -375 395 -989 999
l-159 155 551 545 c395 391 558 558 578 594 54 100 30 230 -59 310 -65 59
-152 83 -231 64z"/>
<path d="M7930 6516 c-93 -25 -157 -84 -187 -172 -19 -55 -13 -144 11 -195 9
-19 270 -285 584 -596 l567 -563 -100 -97 c-624 -610 -1018 -1008 -1035 -1046
-27 -58 -26 -157 1 -217 43 -94 131 -152 234 -153 108 -1 132 16 410 291 827
817 1085 1076 1101 1110 10 20 20 67 22 105 8 123 31 95 -717 832 -448 442
-684 667 -713 682 -56 28 -121 35 -178 19z"/>
</g>
</svg>
